<svg xmlns="http://www.w3.org/2000/svg" width="800" height="600" viewBox="0 0 800 600"><rect x="40.74" y="20.74" width="240.5" height="80.48" fill="#69a5c2"/><g style="isolation:isolate"><g style="isolation:isolate"><path d="M83.06,72,79.27,60.21H73.73V72H71.21V43.64h7.86a5.8,5.8,0,0,1,5.1,2.52,10,10,0,0,1,1.58,5.76,9.44,9.44,0,0,1-1.53,5.61,5.77,5.77,0,0,1-2.4,2l4,12.49Zm-4-25.1H73.73v10h5.34c2.38,0,4.08-1.36,4.08-5S81.45,46.92,79.07,46.92Z"/><path d="M101,63H90.84a9.43,9.43,0,0,0,1.38,5.08,3.14,3.14,0,0,0,2.63,1.45,3,3,0,0,0,2.66-1.33,4.83,4.83,0,0,0,.85-2.2h2.35a8.31,8.31,0,0,1-2.21,5,5.3,5.3,0,0,1-3.65,1.52,5.6,5.6,0,0,1-4.75-3A14.8,14.8,0,0,1,88.32,62a16.63,16.63,0,0,1,1.1-6.48c1-2.44,2.92-4.25,5.41-4.25a5.12,5.12,0,0,1,4.35,2.61A13.25,13.25,0,0,1,101,61Zm-3.31-7a3.16,3.16,0,0,0-2.83-1.84c-2.61,0-3.88,3-3.94,6h7.64A9.34,9.34,0,0,0,97.66,56Z"/><path d="M114.2,80.7v-11A4.69,4.69,0,0,1,110,72.58a4.8,4.8,0,0,1-3.93-2c-1.44-2-2.18-5.17-2.18-8.65s.71-6.44,2.07-8.4a4.75,4.75,0,0,1,4-2.21,4.81,4.81,0,0,1,4.27,3.17l.17-2.65h2.13V80.7Zm-1.44-25.21a2.91,2.91,0,0,0-2.32-1.32c-3.2,0-4,4-4,7.76s.85,7.77,4,7.77a2.92,2.92,0,0,0,2.32-1.33c1.19-1.48,1.58-3.92,1.58-6.44S114,57,112.76,55.49Z"/><path d="M131,72l-.2-3.09a4.7,4.7,0,0,1-4.24,3.57c-3.25,0-4.89-2.76-4.89-7.45V51.76H124V64.57c0,3,.79,4.85,3.06,4.85a2.94,2.94,0,0,0,2.37-1.53c.91-1.32,1.19-3.52,1.19-5.6V51.76h2.41V72Z"/><path d="M138.15,47.12v-4H141v4Zm.17,24.9V51.76h2.46V72Z"/><path d="M152.44,54.93a3.5,3.5,0,0,0-2.72,1.6c-1.16,1.56-1.3,4.36-1.3,6.48v9H146V51.76h2.13l.19,3.57c.74-2.48,2.46-3.69,4.28-3.69a5.5,5.5,0,0,1,1.13.12v3.33A5.09,5.09,0,0,0,152.44,54.93Z"/><path d="M168.13,63H158a9.43,9.43,0,0,0,1.38,5.08A3.13,3.13,0,0,0,162,69.54a3,3,0,0,0,2.66-1.33,5,5,0,0,0,.85-2.2h2.35a8.31,8.31,0,0,1-2.21,5A5.31,5.31,0,0,1,162,72.54a5.59,5.59,0,0,1-4.75-3A14.8,14.8,0,0,1,155.49,62a16.63,16.63,0,0,1,1.1-6.48c1-2.44,2.92-4.25,5.41-4.25a5.13,5.13,0,0,1,4.35,2.61A13.25,13.25,0,0,1,168.16,61Zm-3.31-7A3.13,3.13,0,0,0,162,54.13c-2.61,0-3.88,3-3.94,6h7.64A9.21,9.21,0,0,0,164.82,56Z"/><path d="M189.6,72V59.13c0-2.84-.65-4.8-2.91-4.8a2.63,2.63,0,0,0-2.18,1.36,10.05,10.05,0,0,0-1.22,5.56V72h-2.4V59.13c0-2.84-.6-4.8-2.89-4.8a2.92,2.92,0,0,0-2.43,1.8,11.85,11.85,0,0,0-1,5.12V72H172.2V51.76h2.1l.22,2.89c.77-2.29,2.41-3.41,4-3.41,2.12,0,3.65,1.36,4.27,3.85.77-2.53,2.61-3.85,4.42-3.85,3.25,0,4.78,3,4.78,7.45V72Z"/><path d="M208.55,63H198.42a9.35,9.35,0,0,0,1.39,5.08,3.13,3.13,0,0,0,2.63,1.45,3.07,3.07,0,0,0,2.66-1.33A5.07,5.07,0,0,0,206,66h2.34a8.24,8.24,0,0,1-2.2,5,5.31,5.31,0,0,1-3.65,1.52,5.57,5.57,0,0,1-4.75-3A14.8,14.8,0,0,1,195.9,62,16.63,16.63,0,0,1,197,55.49c1-2.44,2.91-4.25,5.4-4.25a5.15,5.15,0,0,1,4.36,2.61A13.25,13.25,0,0,1,208.58,61Zm-3.31-7a3.15,3.15,0,0,0-2.83-1.84c-2.6,0-3.87,3-3.93,6h7.64A9.21,9.21,0,0,0,205.24,56Z"/><path d="M221.79,72V59.17c0-3-.88-4.84-3.14-4.84-1.39,0-2.49,1.28-3.12,3.12a18.55,18.55,0,0,0-.51,5.16V72h-2.4V51.76h2.09l.2,3.05a4.86,4.86,0,0,1,4.33-3.57c3.25,0,4.95,2.77,4.95,7.45V72Z"/><path d="M233.72,72.3c-3.08,0-3.93-2.76-3.93-5.49V54.69H227V51.76h2.78V46.6l2.4-.8v6h4.24v2.93h-4.24V66.41c0,2,.6,2.76,1.92,2.76a12.85,12.85,0,0,0,2.47-.36v2.93A7.61,7.61,0,0,1,233.72,72.3Z"/><path d="M249.53,70.26a5.89,5.89,0,0,1-9.31,0,8.18,8.18,0,0,1-1.38-4.65h2.4a4.6,4.6,0,0,0,1.16,3.16,3.54,3.54,0,0,0,2.58.93,3.15,3.15,0,0,0,2.63-1.13,3.49,3.49,0,0,0,.7-2.2,2.66,2.66,0,0,0-2.23-2.88l-3.23-.6c-2.15-.48-3.5-2.36-3.5-5.44a7.17,7.17,0,0,1,1.18-4,5.08,5.08,0,0,1,4.22-2.25,5,5,0,0,1,4.55,2.57,7.24,7.24,0,0,1,1,3.88h-2.4a4.45,4.45,0,0,0-.82-2.52,2.81,2.81,0,0,0-2.35-1.08,2.75,2.75,0,0,0-1.67.4,3.11,3.11,0,0,0-1.44,2.72c0,1.68.73,2.4,1.92,2.64.79.16,1.92.32,3.45.68,2,.48,3.65,2.56,3.65,5.6A7.26,7.26,0,0,1,249.53,70.26Z"/></g></g><rect x="160.8" y="141.04" width="240.39" height="80.01" fill="#c3e9fe"/><g style="isolation:isolate"><g style="isolation:isolate"><path d="M247.44,189.24a7,7,0,0,1-5.56,2.84H234.5V163.7h7.38a7,7,0,0,1,5.56,2.89c2.33,3,2.72,7.2,2.72,11.28S249.74,186.28,247.44,189.24ZM245.65,169a4.7,4.7,0,0,0-3.77-2h-4.72V188.8h4.72a4.7,4.7,0,0,0,3.77-2c1.67-2.28,1.82-5.92,1.82-9S247.32,171.27,245.65,169Z"/><path d="M266.68,183.08H256a9,9,0,0,0,1.46,5.08,3.36,3.36,0,0,0,2.78,1.44,3.28,3.28,0,0,0,2.81-1.32,4.81,4.81,0,0,0,.9-2.2h2.48a8.1,8.1,0,0,1-2.33,5,5.79,5.79,0,0,1-3.86,1.52,5.94,5.94,0,0,1-5-3,14.17,14.17,0,0,1-1.88-7.52,15.76,15.76,0,0,1,1.17-6.49c1.07-2.44,3.07-4.24,5.7-4.24a5.48,5.48,0,0,1,4.6,2.6,12.69,12.69,0,0,1,1.92,7.13Zm-3.5-7.05a3.34,3.34,0,0,0-3-1.84c-2.75,0-4.09,3-4.15,6h8.07A8.82,8.82,0,0,0,263.18,176Z"/><path d="M281,190.32a6.44,6.44,0,0,1-9.83,0,7.75,7.75,0,0,1-1.47-4.64h2.54a4.45,4.45,0,0,0,1.23,3.16,3.88,3.88,0,0,0,2.72.92,3.42,3.42,0,0,0,2.77-1.12,3.33,3.33,0,0,0,.75-2.2,2.7,2.7,0,0,0-2.36-2.88l-3.4-.6c-2.28-.48-3.71-2.37-3.71-5.45a6.89,6.89,0,0,1,1.26-4,5.67,5.67,0,0,1,9.26.32,7.08,7.08,0,0,1,1.07,3.88h-2.54a4.31,4.31,0,0,0-.86-2.52,3,3,0,0,0-2.48-1.08,3,3,0,0,0-3.29,3.12,2.32,2.32,0,0,0,2,2.64c.84.16,2,.32,3.65.68,2.15.49,3.85,2.57,3.85,5.61A7,7,0,0,1,281,190.32Z"/><path d="M286.36,167.19v-4h3v4Zm.18,24.89V171.83h2.6v20.25Z"/><path d="M306.32,199.17c-1.47,1.92-4,2.36-6.1,2.36s-4.27-.4-5.73-2.36a5.85,5.85,0,0,1-1.08-3.61,5.27,5.27,0,0,1,2.15-4.48,3.79,3.79,0,0,1-1.76-3.4,4.57,4.57,0,0,1,2-3.92,8.49,8.49,0,0,1-1.73-5.25,8,8,0,0,1,1.43-4.92,5.57,5.57,0,0,1,7.95-1.08c.51-1.8,1.67-2.84,3.11-2.84a4.78,4.78,0,0,1,.75.08v2.76a2.46,2.46,0,0,0-.57,0,1.9,1.9,0,0,0-1.86,1.84,8,8,0,0,1,1,4.2,8.76,8.76,0,0,1-1.37,4.85,5.31,5.31,0,0,1-4.51,2.4,5.15,5.15,0,0,1-2.54-.56,2,2,0,0,0-1.29,1.8c0,1.76,1.32,2,2.27,2h3a6,6,0,0,1,5,2.12,6.48,6.48,0,0,1,1.19,4A6.73,6.73,0,0,1,306.32,199.17Zm-5.2-7.29h-3.49a3.45,3.45,0,0,0-1.92,3.2,3.41,3.41,0,0,0,.63,2.12c1,1.33,2.72,1.41,4,1.41s3.17-.16,4.13-1.45a3.43,3.43,0,0,0,.62-2.08C305.12,192.08,302.94,191.88,301.12,191.88ZM300,174.07c-2.07,0-3.44,1.88-3.44,4.44S297.8,183,300,183s3.43-2,3.43-4.53S302.11,174.07,300,174.07Z"/><path d="M320.51,192.08V179.23c0-3-.93-4.84-3.32-4.84-1.46,0-2.63,1.28-3.28,3.12a17.57,17.57,0,0,0-.54,5.17v9.4h-2.54V171.83H313l.21,3a5.09,5.09,0,0,1,4.57-3.56c3.44,0,5.23,2.76,5.23,7.44v13.33Z"/></g></g><rect x="280.12" y="261.41" width="241.73" height="79.93" fill="#f9cbc9"/><g style="isolation:isolate"><g style="isolation:isolate"><path d="M312.52,312.42V284h2.33v28.38Z"/><path d="M335.53,312.42V299.53c0-2.84-.59-4.8-2.63-4.8a2.38,2.38,0,0,0-2,1.36,10.91,10.91,0,0,0-1.1,5.56v10.77h-2.17V299.53c0-2.84-.54-4.8-2.62-4.8-.92,0-1.66.72-2.2,1.8a13,13,0,0,0-.87,5.12v10.77h-2.17V292.17h1.89l.21,2.88c.69-2.28,2.17-3.4,3.63-3.4,1.92,0,3.3,1.36,3.87,3.84.69-2.52,2.35-3.84,4-3.84,2.95,0,4.33,3,4.33,7.44v13.33Z"/><path d="M351.76,310.94a4,4,0,0,1-7.32-.84v11h-2.18v-28.9h1.92l.16,2.64a4.42,4.42,0,0,1,3.86-3.16,4.21,4.21,0,0,1,3.66,2.2c1.23,2,1.87,5,1.87,8.4S353.07,309,351.76,310.94Zm-3.92-16.37a2.62,2.62,0,0,0-2.1,1.32c-1.07,1.48-1.43,3.92-1.43,6.44s.36,5,1.43,6.45a2.62,2.62,0,0,0,2.1,1.32c2.9,0,3.66-4,3.66-7.77S350.74,294.57,347.84,294.57Z"/><path d="M360.13,312.66c-1.9,0-2.71-1.76-2.71-5V283.52h2.17v24c0,1.36.28,2.08,1.18,2.08a5.44,5.44,0,0,0,.9,0v2.88A3.81,3.81,0,0,1,360.13,312.66Z"/><path d="M375.23,303.42h-9.16a10.16,10.16,0,0,0,1.25,5.08,2.78,2.78,0,0,0,2.38,1.44,2.69,2.69,0,0,0,2.41-1.32,5.26,5.26,0,0,0,.77-2.2H375a8.62,8.62,0,0,1-2,5,4.6,4.6,0,0,1-3.31,1.52c-1.81,0-3.3-1.2-4.3-3a16.08,16.08,0,0,1-1.61-7.52,18.1,18.1,0,0,1,1-6.49c.92-2.44,2.64-4.24,4.89-4.24a4.62,4.62,0,0,1,3.94,2.6,14.32,14.32,0,0,1,1.64,7.13Zm-3-7.05a2.85,2.85,0,0,0-2.56-1.84c-2.36,0-3.51,3-3.56,6H373A10.12,10.12,0,0,0,372.24,296.37Z"/><path d="M394.67,312.42V299.53c0-2.84-.59-4.8-2.64-4.8a2.36,2.36,0,0,0-2,1.36,10.91,10.91,0,0,0-1.1,5.56v10.77h-2.18V299.53c0-2.84-.54-4.8-2.61-4.8-.92,0-1.67.72-2.2,1.8a13,13,0,0,0-.87,5.12v10.77h-2.18V292.17h1.89l.21,2.88c.69-2.28,2.18-3.4,3.63-3.4,1.93,0,3.31,1.36,3.87,3.84.69-2.52,2.36-3.84,4-3.84,2.94,0,4.32,3,4.32,7.44v13.33Z"/><path d="M411.82,303.42h-9.17a10.16,10.16,0,0,0,1.25,5.08,2.78,2.78,0,0,0,2.39,1.44,2.68,2.68,0,0,0,2.4-1.32,5.26,5.26,0,0,0,.77-2.2h2.13a8.69,8.69,0,0,1-2,5,4.6,4.6,0,0,1-3.3,1.52c-1.82,0-3.31-1.2-4.31-3a16.08,16.08,0,0,1-1.61-7.52,18.1,18.1,0,0,1,1-6.49c.92-2.44,2.64-4.24,4.89-4.24a4.61,4.61,0,0,1,3.94,2.6,14.32,14.32,0,0,1,1.64,7.13Zm-3-7.05a2.85,2.85,0,0,0-2.56-1.84c-2.36,0-3.51,3-3.56,6h6.91A10.12,10.12,0,0,0,408.82,296.37Z"/><path d="M423.8,312.42V299.57c0-3-.8-4.84-2.85-4.84-1.25,0-2.25,1.28-2.81,3.12a20.25,20.25,0,0,0-.46,5.17v9.4H415.5V292.17h1.89l.18,3a4.51,4.51,0,0,1,3.92-3.56c2.95,0,4.48,2.76,4.48,7.44v13.33Z"/><path d="M434.6,312.7c-2.79,0-3.56-2.76-3.56-5.48V295.09h-2.51v-2.92H431V287l2.18-.8v6h3.84v2.92h-3.84v11.73c0,2,.53,2.76,1.74,2.76a10.43,10.43,0,0,0,2.22-.36v2.92A6.26,6.26,0,0,1,434.6,312.7Z"/><path d="M449.75,312.7c-1.15,0-1.87-1.36-1.87-3.08h-.05a4.59,4.59,0,0,1-4.17,3.32c-3,0-4.45-3.12-4.45-6.24,0-2.6,1.07-6,4.6-6.33l3.95-.36v-1.48a5.54,5.54,0,0,0-.67-3.08,2.34,2.34,0,0,0-2.12-1,2.62,2.62,0,0,0-2.36,1.2,4.42,4.42,0,0,0-.64,2.44h-2.13a8.06,8.06,0,0,1,1.13-4.24,4.58,4.58,0,0,1,4-2.16c2.5,0,3.94,1.68,4.55,3.88a11.48,11.48,0,0,1,.39,3.12v9.81c0,1.08.28,1.36.72,1.36a2.19,2.19,0,0,0,.56-.12v2.52A2.16,2.16,0,0,1,449.75,312.7Zm-2-10-3.49.31c-1.3.13-2.84,1.09-2.84,3.65,0,1.8.72,3.48,2.56,3.48a3.14,3.14,0,0,0,2.67-1.64,9,9,0,0,0,1.1-4.6Z"/><path d="M458.64,312.7c-2.8,0-3.56-2.76-3.56-5.48V295.09h-2.51v-2.92h2.51V287l2.17-.8v6h3.84v2.92h-3.84v11.73c0,2,.54,2.76,1.74,2.76a10.44,10.44,0,0,0,2.23-.36v2.92A6.3,6.3,0,0,1,458.64,312.7Z"/><path d="M464.22,287.53v-4h2.53v4Zm.15,24.89V292.17h2.23v20.25Z"/><path d="M480,310.58a4.44,4.44,0,0,1-7.84,0c-1.41-2.16-1.84-5.08-1.84-8.29s.43-6.12,1.84-8.28a4.44,4.44,0,0,1,7.84,0c1.41,2.16,1.84,5.08,1.84,8.28S481.45,308.42,480,310.58ZM478.45,296a2.61,2.61,0,0,0-4.66,0c-.92,1.48-1.2,3.92-1.2,6.28s.28,4.81,1.2,6.29a2.61,2.61,0,0,0,4.66,0c.92-1.48,1.2-3.92,1.2-6.29S479.37,297.49,478.45,296Z"/><path d="M493.94,312.42V299.57c0-3-.8-4.84-2.84-4.84-1.26,0-2.26,1.28-2.82,3.12a20.25,20.25,0,0,0-.46,5.17v9.4h-2.18V292.17h1.9l.18,3a4.49,4.49,0,0,1,3.91-3.56c2.95,0,4.49,2.76,4.49,7.44v13.33Z"/></g></g><rect x="400.58" y="381.3" width="240.81" height="79.75" fill="#f09a97"/><g style="isolation:isolate"><g style="isolation:isolate"><path d="M454,436.09h-2.8L444,407.71h2.77l5.91,24,5.78-24h2.74Z"/><path d="M475.58,427.09H464.8a9,9,0,0,0,1.47,5.08,3.4,3.4,0,0,0,2.81,1.44,3.32,3.32,0,0,0,2.83-1.32,4.81,4.81,0,0,0,.9-2.2h2.5a8,8,0,0,1-2.35,5,5.84,5.84,0,0,1-3.88,1.52,6,6,0,0,1-5.07-3,14.1,14.1,0,0,1-1.9-7.53,15.75,15.75,0,0,1,1.18-6.48c1.09-2.44,3.1-4.24,5.75-4.24a5.58,5.58,0,0,1,4.65,2.6,12.69,12.69,0,0,1,1.93,7.12Zm-3.52-7a3.37,3.37,0,0,0-3-1.84c-2.77,0-4.12,3-4.18,6H473A8.82,8.82,0,0,0,472.06,420Z"/><path d="M486.73,419a3.77,3.77,0,0,0-2.89,1.6c-1.24,1.56-1.39,4.36-1.39,6.49v9h-2.53V415.84h2.26l.21,3.56a4.79,4.79,0,0,1,4.55-3.68,6.21,6.21,0,0,1,1.21.12v3.32A5.73,5.73,0,0,0,486.73,419Z"/><path d="M491.31,411.2v-4h3v4Zm.18,24.89V415.84h2.62v20.25Z"/><path d="M505.26,409.68c-1.36,0-2.17,1.12-2.17,2.76v3.4h4.4v2.88h-4.4v17.37h-2.56V418.72h-2.77v-2.88h2.77v-3.6c0-3,1.78-5.45,4.43-5.45a12.08,12.08,0,0,1,2.83.36V410A14,14,0,0,0,505.26,409.68Zm5.28,1.52v-4h3v4Zm.17,24.89V415.84h2.63v20.25Z"/><path d="M529,434.41a5.32,5.32,0,0,1-4.4,2.2c-2.74,0-4.49-1.68-5.57-3.8a19.08,19.08,0,0,1,0-13.69c1.08-2.12,2.8-3.8,5.54-3.8a5.33,5.33,0,0,1,4.34,2.16,9,9,0,0,1,1.81,5.2h-2.59a5.85,5.85,0,0,0-1.09-3.16,3.13,3.13,0,0,0-2.47-1.24,3.39,3.39,0,0,0-2.65,1.32c-1.2,1.36-1.54,3.88-1.54,6.36s.34,5,1.54,6.37a3.39,3.39,0,0,0,2.65,1.32,3.19,3.19,0,0,0,2.6-1.36,5.85,5.85,0,0,0,1-3h2.59A8.8,8.8,0,0,1,529,434.41Z"/><path d="M546.06,436.37c-1.36,0-2.2-1.36-2.2-3.08h-.06a5.35,5.35,0,0,1-4.92,3.32c-3.49,0-5.24-3.12-5.24-6.24,0-2.6,1.27-6,5.43-6.33l4.64-.36V422.2a4.83,4.83,0,0,0-.79-3.08,2.93,2.93,0,0,0-2.5-1,3.27,3.27,0,0,0-2.77,1.2,3.94,3.94,0,0,0-.75,2.44h-2.51a7.11,7.11,0,0,1,1.33-4.24,5.67,5.67,0,0,1,4.7-2.16,5.3,5.3,0,0,1,5.37,3.88,10,10,0,0,1,.45,3.12v9.81c0,1.08.33,1.36.84,1.36a2.84,2.84,0,0,0,.66-.12v2.52A2.81,2.81,0,0,1,546.06,436.37Zm-2.35-10-4.1.31a3.44,3.44,0,0,0-3.35,3.65c0,1.8.85,3.48,3,3.48a3.8,3.8,0,0,0,3.13-1.64,7.91,7.91,0,0,0,1.3-4.6Z"/><path d="M556.51,436.37c-3.28,0-4.19-2.76-4.19-5.48V418.76h-3v-2.92h3v-5.16l2.56-.8v6h4.52v2.92h-4.52v11.73c0,2,.64,2.76,2,2.76a14.27,14.27,0,0,0,2.62-.36v2.92A8.49,8.49,0,0,1,556.51,436.37Z"/><path d="M563.08,411.2v-4h3v4Zm.18,24.89V415.84h2.62v20.25Z"/><path d="M581.7,434.25a5.68,5.68,0,0,1-9.22,0c-1.66-2.16-2.17-5.08-2.17-8.29s.51-6.12,2.17-8.28a5.68,5.68,0,0,1,9.22,0c1.66,2.16,2.17,5.08,2.17,8.28S583.36,432.09,581.7,434.25Zm-1.87-14.57a3.33,3.33,0,0,0-5.48,0c-1.09,1.48-1.42,3.92-1.42,6.28s.33,4.81,1.42,6.29a3.33,3.33,0,0,0,5.48,0c1.09-1.48,1.42-3.92,1.42-6.29S580.92,421.16,579.83,419.68Z"/><path d="M598.06,436.09V423.24c0-3-.93-4.84-3.35-4.84-1.47,0-2.65,1.28-3.31,3.12a17.57,17.57,0,0,0-.54,5.17v9.4H588.3V415.84h2.23l.21,3a5.11,5.11,0,0,1,4.61-3.56c3.46,0,5.27,2.76,5.27,7.44v13.33Z"/></g></g><rect x="520.99" y="501.64" width="239.99" height="79.75" fill="#e0605a"/><g style="isolation:isolate"><g style="isolation:isolate"><path d="M572.31,556.43V532.5L566.09,556h-2l-6.23-23.73v24.13h-2.4V528.05h3.62l6.06,23.1,6-23.1h3.54v28.38Z"/><path d="M590.58,556.71c-1.27,0-2.06-1.36-2.06-3.08h-.06a5,5,0,0,1-4.61,3.32c-3.28,0-4.92-3.12-4.92-6.24,0-2.6,1.18-6,5.09-6.33l4.36-.36v-1.48a5.12,5.12,0,0,0-.74-3.08,2.69,2.69,0,0,0-2.35-1,3,3,0,0,0-2.6,1.2,4.12,4.12,0,0,0-.71,2.44h-2.35a7.38,7.38,0,0,1,1.25-4.24,5.21,5.21,0,0,1,4.41-2.16,5,5,0,0,1,5,3.88,10.71,10.71,0,0,1,.42,3.12v9.81c0,1.08.31,1.36.79,1.36a2.58,2.58,0,0,0,.63-.12v2.52A2.55,2.55,0,0,1,590.58,556.71Zm-2.2-10-3.85.31a3.34,3.34,0,0,0-3.14,3.65c0,1.8.79,3.48,2.83,3.48a3.52,3.52,0,0,0,2.94-1.64,8.25,8.25,0,0,0,1.22-4.6Z"/><path d="M595.81,531.54v-4h2.8v4Zm.17,24.89V536.18h2.46v20.25Z"/><path d="M612.87,556.43V543.58c0-3-.88-4.84-3.14-4.84-1.39,0-2.49,1.28-3.11,3.12a18.21,18.21,0,0,0-.51,5.17v9.4H603.7V536.18h2.09l.2,3a4.86,4.86,0,0,1,4.33-3.56c3.25,0,4.95,2.76,4.95,7.44v13.33Z"/><path d="M624.8,556.71c-3.08,0-3.93-2.76-3.93-5.48V539.1H618.1v-2.92h2.77V531l2.4-.81v6h4.25v2.92h-4.25v11.73c0,2,.6,2.76,1.93,2.76a12.84,12.84,0,0,0,2.46-.36v2.92A7.61,7.61,0,0,1,624.8,556.71Z"/><path d="M642.37,547.43H632.24a9.43,9.43,0,0,0,1.38,5.08,3.13,3.13,0,0,0,2.63,1.44,3,3,0,0,0,2.66-1.32,5,5,0,0,0,.85-2.2h2.35a8.28,8.28,0,0,1-2.21,5,5.3,5.3,0,0,1-3.65,1.52,5.6,5.6,0,0,1-4.75-3,14.75,14.75,0,0,1-1.78-7.53,16.63,16.63,0,0,1,1.1-6.48c1-2.44,2.92-4.24,5.41-4.24a5.13,5.13,0,0,1,4.35,2.6,13.25,13.25,0,0,1,1.81,7.12Zm-3.31-7a3.16,3.16,0,0,0-2.83-1.84c-2.61,0-3.88,3-3.94,6h7.64A9.34,9.34,0,0,0,639.06,540.38Z"/><path d="M655.6,556.43V543.58c0-3-.88-4.84-3.14-4.84-1.39,0-2.49,1.28-3.11,3.12a18.58,18.58,0,0,0-.51,5.17v9.4h-2.4V536.18h2.09l.2,3a4.84,4.84,0,0,1,4.32-3.56c3.26,0,5,2.76,5,7.44v13.33Z"/><path d="M673.39,556.71c-1.27,0-2.06-1.36-2.06-3.08h-.06a5,5,0,0,1-4.61,3.32c-3.28,0-4.92-3.12-4.92-6.24,0-2.6,1.18-6,5.09-6.33l4.35-.36v-1.48a5.11,5.11,0,0,0-.73-3.08,2.69,2.69,0,0,0-2.35-1,3,3,0,0,0-2.6,1.2,4.06,4.06,0,0,0-.71,2.44h-2.35a7.38,7.38,0,0,1,1.25-4.24,5.21,5.21,0,0,1,4.41-2.16,5,5,0,0,1,5,3.88,10.71,10.71,0,0,1,.42,3.12v9.81c0,1.08.31,1.36.79,1.36a2.45,2.45,0,0,0,.62-.12v2.52A2.52,2.52,0,0,1,673.39,556.71Zm-2.21-10-3.84.31a3.34,3.34,0,0,0-3.14,3.65c0,1.8.79,3.48,2.83,3.48a3.52,3.52,0,0,0,2.94-1.64,8.24,8.24,0,0,0,1.21-4.6Z"/><path d="M688,556.43V543.58c0-3-.88-4.84-3.14-4.84-1.39,0-2.49,1.28-3.12,3.12a18.58,18.58,0,0,0-.51,5.17v9.4h-2.4V536.18h2.09l.2,3a4.86,4.86,0,0,1,4.33-3.56c3.25,0,5,2.76,5,7.44v13.33Z"/><path d="M704.78,554.75a4.89,4.89,0,0,1-4.13,2.2c-2.57,0-4.21-1.68-5.23-3.8a20.28,20.28,0,0,1,0-13.69c1-2.12,2.63-3.8,5.21-3.8a4.91,4.91,0,0,1,4.07,2.16,9.45,9.45,0,0,1,1.7,5.2H704a6.11,6.11,0,0,0-1-3.16,2.87,2.87,0,0,0-2.31-1.24,3.14,3.14,0,0,0-2.5,1.32c-1.13,1.36-1.44,3.88-1.44,6.36s.31,5,1.44,6.37a3.14,3.14,0,0,0,2.5,1.32,2.93,2.93,0,0,0,2.43-1.36,6,6,0,0,0,1-3h2.43A9.12,9.12,0,0,1,704.78,554.75Z"/><path d="M721.89,547.43H711.77a9.43,9.43,0,0,0,1.38,5.08,3.12,3.12,0,0,0,2.63,1.44,3,3,0,0,0,2.66-1.32,5,5,0,0,0,.85-2.2h2.35a8.28,8.28,0,0,1-2.21,5,5.31,5.31,0,0,1-3.65,1.52,5.59,5.59,0,0,1-4.75-3,14.75,14.75,0,0,1-1.78-7.53,16.63,16.63,0,0,1,1.1-6.48c1-2.44,2.92-4.24,5.41-4.24a5.14,5.14,0,0,1,4.35,2.6,13.25,13.25,0,0,1,1.81,7.12Zm-3.31-7a3.13,3.13,0,0,0-2.82-1.84c-2.61,0-3.88,3-3.94,6h7.64A9.21,9.21,0,0,0,718.58,540.38Z"/></g></g><path d="M419.33,250.58l-19.7,12.77,6.74-22.49A13.77,13.77,0,0,0,419.33,250.58Z" fill-rule="evenodd"/><path d="M539.33,370.65l-19.7,12.76,6.74-22.48A13.8,13.8,0,0,0,539.33,370.65Z" fill-rule="evenodd"/><path d="M659.33,490.71l-19.7,12.77L646.37,481A13.77,13.77,0,0,0,659.33,490.71Z" fill-rule="evenodd"/><path d="M299.33,130.48l-19.7,12.77,6.74-22.49A13.77,13.77,0,0,0,299.33,130.48Z" fill-rule="evenodd"/><path d="M290.23,132c29.26-37.19-4.43-71-9-71" fill="none" stroke="#000"/><path d="M410.06,249.91c29.27-37.19-4.43-71-9-71" fill="none" stroke="#000"/><path d="M531.11,369.07c29.26-37.18-4.43-71-9-71" fill="none" stroke="#000"/><path d="M650.7,489.53c29.27-37.18-4.43-71-9-71" fill="none" stroke="#000"/></svg>